<svg width="100" height="100" viewBox="0 0 100 100" fill="none" xmlns="http://www.w3.org/2000/svg">
<g clip-path="url(#clip0_6_0)">
<path d="M43.772 59.3671L60.0362 49.9998L43.772 40.6323V59.3671Z" fill="#600E09"/>
<path d="M50 0C22.39 0 0 22.39 0 50C0 77.61 22.39 100 50 100C77.61 100 100 77.61 100 50C100 22.39 77.61 0 50 0ZM81.2422 50.051C81.2422 50.051 81.2422 60.1912 79.956 65.081C79.235 67.7575 77.1247 69.8678 74.4485 70.588C69.5587 71.875 50 71.875 50 71.875C50 71.875 30.4925 71.875 25.5515 70.5368C22.8752 69.8165 20.7649 67.7055 20.0439 65.0293C18.7569 60.1912 18.7569 50 18.7569 50C18.7569 50 18.7569 39.8605 20.0439 34.9707C20.7642 32.2945 22.9263 30.1322 25.5515 29.412C30.4412 28.125 50 28.125 50 28.125C50 28.125 69.5587 28.125 74.4485 29.4633C77.1247 30.1835 79.235 32.2945 79.956 34.9707C81.2943 39.8605 81.2422 50.051 81.2422 50.051Z" fill="#600E09"/>
</g>
<defs>
<clipPath id="clip0_6_0">
<rect width="100" height="100" fill="white"/>
</clipPath>
</defs>
</svg>
